<svg width="18" height="19" viewBox="0 0 18 19" fill="none" xmlns="http://www.w3.org/2000/svg">
<path d="M1.66666 4.70444H16.4844M15.5583 4.70444L14.7554 15.9493C14.7221 16.4166 14.513 16.8539 14.1702 17.1732C13.8274 17.4925 13.3763 17.67 12.9078 17.67H5.2433C4.77481 17.67 4.32373 17.4925 3.9809 17.1732C3.63807 16.8539 3.42897 16.4166 3.39571 15.9493L2.59277 4.70444H15.5583ZM7.22332 8.40889V13.9656V8.40889ZM10.9278 8.40889V13.9656V8.40889ZM11.8539 4.70444V1.92611C11.8539 1.68049 11.7563 1.44493 11.5826 1.27125C11.4089 1.09757 11.1734 1 10.9278 1H7.22332C6.9777 1 6.74214 1.09757 6.56846 1.27125C6.39478 1.44493 6.29721 1.68049 6.29721 1.92611V4.70444H11.8539Z" stroke="#B5B5B9" stroke-width="2" stroke-linecap="round" stroke-linejoin="round"/>
</svg>
