<svg width="17" height="17" viewBox="0 0 17 17" fill="none" xmlns="http://www.w3.org/2000/svg">
<path d="M9.16667 14.9183C10.1077 14.7259 10.9533 14.2145 11.5607 13.4705C12.1681 12.7264 12.4999 11.7955 12.5 10.835V8.33501C12.5011 7.76153 12.3834 7.19404 12.1542 6.66835H4.5125C4.2833 7.19404 4.16555 7.76153 4.16667 8.33501V10.835C4.16679 11.7955 4.49858 12.7264 5.10596 13.4705C5.71333 14.2145 6.55901 14.7259 7.5 14.9183V10.0017H9.16667V14.9183ZM2.94667 13.0767C2.65096 12.3664 2.49914 11.6044 2.5 10.835H0V9.16835H2.5V8.33501C2.5 7.79918 2.5725 7.28085 2.7075 6.78835L0.863334 5.72335L1.69667 4.28001L3.38 5.25168C3.43313 5.16694 3.48843 5.08358 3.54583 5.00168H13.1208C13.1783 5.08335 13.2333 5.16751 13.2867 5.25168L14.97 4.28001L15.8033 5.72335L13.9592 6.78835C14.0942 7.28001 14.1667 7.79918 14.1667 8.33501V9.16835H16.6667V10.835H14.1667C14.1667 11.6292 14.0083 12.3867 13.72 13.0767L15.8033 14.28L14.97 15.7233L12.865 14.5083C12.3186 15.1837 11.6281 15.7282 10.844 16.1019C10.0598 16.4757 9.20199 16.6692 8.33333 16.6683C7.46468 16.6692 6.60685 16.4757 5.82272 16.1019C5.03858 15.7282 4.34803 15.1837 3.80167 14.5083L1.69667 15.7233L0.863334 14.28L2.94667 13.0767ZM5 3.33501C5 2.45096 5.35119 1.60311 5.97631 0.977989C6.60143 0.352868 7.44928 0.00167847 8.33333 0.00167847C9.21739 0.00167847 10.0652 0.352868 10.6904 0.977989C11.3155 1.60311 11.6667 2.45096 11.6667 3.33501H5Z" fill="#95A4A6"/>
</svg>
