<svg width="17" height="18" viewBox="0 0 17 18" fill="none" xmlns="http://www.w3.org/2000/svg">
<path fill-rule="evenodd" clip-rule="evenodd" d="M13.9253 4.7717C14.0815 4.92801 14.1693 5.13997 14.1693 5.36099C14.1693 5.582 14.0815 5.79397 13.9253 5.95027L7.25728 12.6183C7.10098 12.7745 6.88901 12.8623 6.668 12.8623C6.44699 12.8623 6.23502 12.7745 6.07872 12.6183L2.74472 9.28427C2.59289 9.12707 2.50887 8.91653 2.51077 8.69799C2.51267 8.47944 2.60033 8.27039 2.75487 8.11585C2.90941 7.96132 3.11846 7.87366 3.337 7.87176C3.55554 7.86986 3.76608 7.95387 3.92328 8.1057L6.668 10.8504L12.7467 4.7717C12.903 4.61544 13.115 4.52766 13.336 4.52766C13.557 4.52766 13.769 4.61544 13.9253 4.7717Z" fill="#95A4A6"/>
</svg>
